#!OML:ASF X:\für Bonn\!DataBase\2005_08_12_Daniel\c3d\Daniel.ASF
:FULLY-SPECIFIED
:DEGREES
122
root 1.89923 17.1853 -19.4532 192.546 164.796 -174.067
lowerback 74.6104 -7.26378 11.8465
upperback 10.729 1.30941 -2.87577
thorax -8.14456 1.39868 -8.58286
lowerneck 2.93022 -6.94194 -2.73618
upperneck 5.13116 -9.10131 -0.943656
head 1.17673 -4.52126 0.132811
rclavicle 1.90833e-014 -5.46658e-015
rhumerus 57.5136 -35.9462 -100.212
rradius 5.29759
rwrist 40.7965
rhand -27.4417 10.3593
rfingers 7.12502
rthumb -0.846702 -19.6188
lclavicle 1.90833e-014 -5.46658e-015
lhumerus -26.2827 -7.03152 90.8723
lradius 59.3283
lwrist -0.261621
lhand -12.7541 -8.53346
lfingers 7.12502
lthumb 13.3302 21.0202
rfemur -41.8421 -4.13254 6.19366
rtibia 42.9016
rfoot -11.9953 -9.4747
rtoes -16.7528
lfemur -44.5447 -13.3935 -20.527
ltibia 41.7554
lfoot -8.10489 -4.42617
ltoes -10.4374
123
root 1.87582 17.1623 -19.4376 193.09 164.639 -173.796
lowerback 75.2542 -7.44762 11.8793
upperback 10.4887 1.25428 -2.92427
thorax -8.36408 1.36651 -8.61941
lowerneck 2.65621 -6.96378 -2.65314
upperneck 5.20262 -9.11677 -1.07961
head 1.23407 -4.53043 0.06702
rclavicle -4.13472e-014 2.73329e-014
rhumerus 58.1808 -35.9055 -100.27
rradius 5.38835
rwrist 40.6303
rhand -27.6695 10.1866
rfingers 7.12502
rthumb -1.06672 -19.7904
lclavicle -4.13472e-014 2.73329e-014
lhumerus -26.6004 -7.30707 90.935
lradius 59.1791
lwrist -0.294752
lhand -12.6579 -8.74575
lfingers 7.12502
lthumb 13.423 20.8018
rfemur -42.7164 -4.35571 6.00761
rtibia 43.6813
rfoot -12.3521 -9.46406
rtoes -16.6828
lfemur -45.2994 -13.2496 -20.6914
ltibia 42.1392
lfoot -8.18038 -4.79699
ltoes -10.411
124
root 1.85294 17.1387 -19.4209 193.648 164.493 -173.528
lowerback 75.8884 -7.62158 11.9174
upperback 10.2273 1.21101 -2.98045
thorax -8.60569 1.33701 -8.67358
lowerneck 2.46593 -6.99177 -2.5474
upperneck 5.25228 -9.14183 -1.22549
head 1.26916 -4.54337 -0.00175088
rclavicle 3.18055e-015 -3.24516e-014
rhumerus 58.8092 -35.9153 -100.304
rradius 5.4666
rwrist 40.4478
rhand -27.9038 10.0386
rfingers 7.12502
rthumb -1.29302 -19.9372
lclavicle 3.18055e-015 -3.24516e-014
lhumerus -26.9199 -7.6277 91.0095
lradius 59.0286
lwrist -0.315851
lhand -12.6314 -8.96033
lfingers 7.12502
lthumb 13.4485 20.5855
rfemur -43.5993 -4.59391 5.84081
rtibia 44.4548
rfoot -12.6665 -9.42315
rtoes -16.6413
lfemur -46.0565 -13.0809 -20.8635
ltibia 42.5289
lfoot -8.29033 -5.19686
ltoes -10.5313
125
root 1.83013 17.1146 -19.404 194.169 164.325 -173.259
lowerback 76.5349 -7.80546 11.9447
upperback 9.96801 1.15875 -3.01784
thorax -8.84341 1.30271 -8.69679
lowerneck 2.32135 -6.99813 -2.47494
upperneck 5.26636 -9.14184 -1.34708
head 1.28813 -4.54406 -0.0553546
rclavicle -6.36111e-015 3.44394e-014
rhumerus 59.431 -35.9233 -100.296
rradius 5.54041
rwrist 40.2302
rhand -28.1527 9.88109
rfingers 7.12502
rthumb -1.53344 -20.0931
lclavicle -6.36111e-015 3.44394e-014
lhumerus -27.2221 -7.93752 91.1013
lradius 58.8917
lwrist -0.279356
lhand -12.6961 -9.15157
lfingers 7.12502
lthumb 13.3862 20.3984
rfemur -44.4305 -4.84286 5.67625
rtibia 45.2277
rfoot -13.0067 -9.40167
rtoes -16.7074
lfemur -46.7781 -12.9145 -21.047
ltibia 42.9191
lfoot -8.3663 -5.61883
ltoes -10.4188
126
root 1.80778 17.0894 -19.3876 194.678 164.179 -173.005
lowerback 77.1627 -7.99458 12.009
upperback 9.71463 1.11981 -3.08634
thorax -9.06923 1.2783 -8.77761
lowerneck 2.21084 -7.02261 -2.38207
upperneck 5.28502 -9.16681 -1.44176
head 1.3034 -4.55609 -0.103054
rclavicle -3.18055e-014 4.53912e-014
rhumerus 60.0784 -35.9861 -100.326
rradius 5.58667
rwrist 40.0011
rhand -28.3571 9.66174
rfingers 7.12502
rthumb -1.73084 -20.311
lclavicle -3.18055e-014 4.53912e-014
lhumerus -27.5286 -8.29663 91.1882
lradius 58.8007
lwrist -0.194671
lhand -12.8052 -9.25659
lfingers 7.12502
lthumb 13.281 20.3003
rfemur -45.2607 -5.05114 5.50881
rtibia 45.9985
rfoot -13.3841 -9.36466
rtoes -16.6979
lfemur -47.4957 -12.7644 -21.2164
ltibia 43.3255
lfoot -8.44576 -5.9921
ltoes -10.3938
127
root 1.78604 17.0627 -19.3719 195.165 164.057 -172.739
lowerback 77.7621 -8.15751 12.0325
upperback 9.48906 1.07416 -3.14992
thorax -9.26903 1.25329 -8.83509
lowerneck 2.12455 -7.03716 -2.25093
upperneck 5.2617 -9.17846 -1.59998
head 1.29618 -4.56138 -0.173626
rclavicle -2.22639e-014 2.98177e-016
rhumerus 60.7143 -36.0479 -100.345
rradius 5.64157
rwrist 39.7534
rhand -28.5865 9.53113
rfingers 7.12502
rthumb -1.95234 -20.4397
lclavicle -2.22639e-014 2.98177e-016
lhumerus -27.7863 -8.62354 91.2749
lradius 58.6687
lwrist -0.0786606
lhand -12.8929 -9.35304
lfingers 7.12502
lthumb 13.1965 20.2093
rfemur -46.0749 -5.2629 5.33803
rtibia 46.7708
rfoot -13.6975 -9.33594
rtoes -16.7594
lfemur -48.1928 -12.6234 -21.3969
ltibia 43.7378
lfoot -8.5394 -6.35012
ltoes -10.2836
